<svg width="24" height="24" viewBox="0 0 24 24" fill="none" xmlns="http://www.w3.org/2000/svg">
<rect width="24" height="24" rx="4" fill="#FF9777"/>
<path d="M13.5072 14.2923H10.1738" stroke="white" stroke-width="1.5" stroke-miterlimit="10" stroke-linecap="round" stroke-linejoin="round"/>
<path d="M11.8418 12.6654V15.9987" stroke="white" stroke-width="1.5" stroke-miterlimit="10" stroke-linecap="round" stroke-linejoin="round"/>
<path d="M12.44 5.67875L12.42 5.72542L10.4866 10.2121H8.58664C8.13331 10.2121 7.69997 10.3054 7.30664 10.4721L8.47331 7.68542L8.49997 7.61875L8.54664 7.51209C8.55997 7.47209 8.57331 7.43209 8.59331 7.39875C9.46664 5.37875 10.4533 4.91875 12.44 5.67875Z" stroke="white" stroke-width="1.5" stroke-linecap="round" stroke-linejoin="round"/>
<path d="M16.033 10.3454C15.733 10.2521 15.413 10.2121 15.093 10.2121H10.4863L12.4197 5.72542L12.4397 5.67876C12.5397 5.71209 12.633 5.75876 12.733 5.79876L14.2063 6.41876C15.0263 6.75876 15.5997 7.11209 15.9463 7.53876C16.013 7.61876 16.0663 7.69209 16.113 7.77876C16.173 7.87209 16.2197 7.96542 16.2463 8.06542C16.273 8.12542 16.293 8.18542 16.3063 8.23876C16.4863 8.79876 16.3797 9.48542 16.033 10.3454Z" stroke="white" stroke-width="1.5" stroke-linecap="round" stroke-linejoin="round"/>
<path d="M18.3485 13.4656V14.7656C18.3485 14.8989 18.3418 15.0322 18.3351 15.1656C18.2085 17.4922 16.9085 18.6656 14.4418 18.6656H9.2418C9.0818 18.6656 8.9218 18.6522 8.76846 18.6322C6.64846 18.4922 5.51513 17.3589 5.37513 15.2389C5.35513 15.0856 5.3418 14.9256 5.3418 14.7656V13.4656C5.3418 12.1256 6.15513 10.9722 7.31513 10.4722C7.71513 10.3056 8.1418 10.2122 8.59513 10.2122H15.1018C15.4285 10.2122 15.7485 10.2589 16.0418 10.3456C17.3685 10.7522 18.3485 11.9922 18.3485 13.4656Z" stroke="white" stroke-width="1.5" stroke-linecap="round" stroke-linejoin="round"/>
<path d="M8.47398 7.68542L7.30732 10.4721C6.14732 10.9721 5.33398 12.1254 5.33398 13.4654V11.5121C5.33398 9.61876 6.68065 8.03876 8.47398 7.68542Z" stroke="white" stroke-width="1.5" stroke-linecap="round" stroke-linejoin="round"/>
<path d="M18.3457 11.5118V13.4651C18.3457 11.9984 17.3724 10.7518 16.0391 10.3518C16.3857 9.48511 16.4857 8.80511 16.3191 8.23844C16.3057 8.17844 16.2857 8.11844 16.2591 8.06511C17.4991 8.70511 18.3457 10.0184 18.3457 11.5118Z" stroke="white" stroke-width="1.5" stroke-linecap="round" stroke-linejoin="round"/>
</svg>
