<svg width="64" height="64" viewBox="0 0 64 64" fill="none" xmlns="http://www.w3.org/2000/svg">
<ellipse cx="32" cy="32.3168" rx="32" ry="31.6832" fill="#ECEFF5"/>
<mask id="mask0_669_10395" style="mask-type:alpha" maskUnits="userSpaceOnUse" x="0" y="0" width="64" height="64">
<ellipse cx="32" cy="31.6832" rx="32" ry="31.6832" fill="#F9F9F9"/>
</mask>
<g mask="url(#mask0_669_10395)">
<path d="M50.2306 20.3737H14.3418V58.4992H50.2306V20.3737Z" fill="#5082DB"/>
<path d="M30.3389 22.4257H16.4863V56.4237H30.3389V22.4257Z" fill="#AED5FE"/>
<path d="M48.0869 22.4254H34.2344V56.4234H48.0869V22.4254Z" fill="#AED5FE"/>
<path opacity="0.3" d="M50.2306 43.1106H14.3418V58.4753H50.2306V43.1106Z" fill="#339FE0"/>
<path d="M50.0445 10.1386H14.5268L11.4141 21.1373V24.3343C11.4141 26.0759 12.6303 27.4835 14.1351 27.4835C15.3513 27.4835 16.382 26.5531 16.7325 25.2886C17.0829 26.5769 18.1136 27.4835 19.3298 27.4835C20.546 27.4835 21.5767 26.5531 21.9272 25.2886C22.2776 26.5769 23.3083 27.4835 24.5245 27.4835C25.7407 27.4835 26.7714 26.5531 27.1219 25.2886C27.4723 26.5769 28.503 27.4835 29.7192 27.4835C30.9354 27.4835 31.9661 26.5531 32.3166 25.2886C32.667 26.5769 33.6977 27.4835 34.9139 27.4835C36.1301 27.4835 37.1608 26.5531 37.5113 25.2886C37.8617 26.5769 38.8924 27.4835 40.1086 27.4835C41.3248 27.4835 42.3555 26.5531 42.706 25.2886C43.0564 26.5769 44.0871 27.4835 45.3033 27.4835C46.5195 27.4835 47.5502 26.5531 47.9007 25.2886C48.2511 26.5769 49.2818 27.4835 50.498 27.4835C52.0028 27.4835 53.2191 26.0759 53.2191 24.3343V21.1373L50.0445 10.1386Z" fill="#F4406F"/>
<path d="M23.4526 10.1386H18.9793L16.7324 21.1373V25.2647C17.0829 26.5531 18.1136 27.4597 19.3298 27.4597C20.546 27.4597 21.5767 26.5292 21.9271 25.2647V21.1373L23.4526 10.1386Z" fill="#EAF3FF"/>
<path d="M27.8437 10.1386L27.1016 21.1373V25.2647C27.452 26.5531 28.4827 27.4597 29.6989 27.4597C30.9151 27.4597 31.9458 26.5292 32.2963 25.2647V10.1386H27.8437Z" fill="#EAF3FF"/>
<path d="M37.4706 21.1373V25.2647C37.8211 26.5531 38.8518 27.4597 40.068 27.4597C41.2842 27.4597 42.3149 26.5292 42.6653 25.2647V21.1373L41.1605 10.1386H36.7285L37.4706 21.1373Z" fill="#EAF3FF"/>
<path d="M50.4361 27.4835C51.9409 27.4835 53.1571 26.0759 53.1571 24.3343V21.1373L50.0444 10.1386H45.5918L47.8387 21.1373V25.2647C48.1891 26.5531 49.2198 27.4835 50.4361 27.4835Z" fill="#EAF3FF"/>
<path opacity="0.3" d="M14.1351 27.4835C15.3513 27.4835 16.382 26.5531 16.7325 25.2886C17.0829 26.5769 18.1136 27.4835 19.3298 27.4835C20.546 27.4835 21.5767 26.5531 21.9272 25.2886C22.2776 26.5769 23.3083 27.4835 24.5245 27.4835C25.7407 27.4835 26.7714 26.5531 27.1219 25.2886C27.4723 26.5769 28.503 27.4835 29.7192 27.4835C30.9354 27.4835 31.9661 26.5531 32.3166 25.2886C32.667 26.5769 33.6977 27.4835 34.9139 27.4835C36.1301 27.4835 37.1608 26.5531 37.5113 25.2886C37.8617 26.5769 38.8924 27.4835 40.1086 27.4835C41.3248 27.4835 42.3555 26.5531 42.706 25.2886C43.0564 26.5769 44.0871 27.4835 45.3033 27.4835C46.5195 27.4835 47.5502 26.5531 47.9007 25.2886C48.2511 26.5769 49.2818 27.4835 50.498 27.4835C52.0028 27.4835 53.2191 26.0759 53.2191 24.3342V21.1372H11.4141V24.3342C11.4141 26.0759 12.6303 27.4835 14.1351 27.4835Z" fill="#339FE0"/>
<path d="M44.0255 51.9145C44.0255 51.9145 40.4181 50.1013 39.1606 48.1449C37.8826 46.1885 39.1606 45.5205 40.8303 46.7134C40.8303 46.7134 40.3768 45.091 41.1602 44.9479C41.9435 44.8286 43.9224 48.0733 44.0255 51.9145Z" fill="#399FDD"/>
<path d="M40.1716 47.7155C39.9036 47.978 40.0479 48.6937 40.254 49.3618C41.8207 50.7932 44.047 51.9146 44.047 51.9146C43.0163 48.3836 40.7076 47.2145 40.1716 47.7155Z" fill="#69B2D3"/>
<path d="M46.5605 51.9145C46.5605 51.9145 50.168 50.1013 51.4254 48.1449C52.7035 46.1885 51.4254 45.5205 49.7557 46.7134C49.7557 46.7134 50.2092 45.091 49.4259 44.9479C48.6425 44.8286 46.6636 48.0733 46.5605 51.9145Z" fill="#399FDD"/>
<path d="M50.436 47.7155C49.9 47.2145 47.5912 48.3836 46.5605 51.9146C46.5605 51.9146 48.7868 50.7932 50.3535 49.3618C50.5596 48.6937 50.7039 47.978 50.436 47.7155Z" fill="#69B2D3"/>
<path d="M44.9321 51.9144C44.3343 52.153 42.6646 49.0276 42.2317 46.7849C41.7988 44.5184 42.3966 42.2996 43.8602 43.9458C43.8602 43.9458 43.8808 40.9158 45.0764 40.7727C46.272 40.6534 46.5194 44.4945 46.5194 44.4945C46.5194 44.4945 47.4676 43.1108 48.2509 43.6118C49.0137 44.1128 48.354 50.5784 44.9321 51.9144Z" fill="#69B2D3"/>
<path d="M45.0347 42.2995C45.0347 42.2995 45.3852 47.0711 44.9316 51.9144" stroke="#399FDD" stroke-miterlimit="10" stroke-linecap="round" stroke-linejoin="round"/>
<path d="M43.1172 45.234C43.1172 45.234 43.8181 48.2878 44.9931 51.1747C44.9931 51.1747 46.7246 48.5741 47.7347 45.067" stroke="#399FDD" stroke-miterlimit="10" stroke-linecap="round" stroke-linejoin="round"/>
<path d="M49.3637 57.9983H41.0563L39.7988 50.4591H50.6211L49.3637 57.9983Z" fill="#EAF3FF"/>
<path d="M40.8301 56.5669L41.0568 57.9984H49.3642L50.3949 51.8668L40.8301 56.5669Z" fill="#AED5FE"/>
<path d="M51.9622 57.9265H12.6309V63.3424H51.9622V57.9265Z" fill="#2E53AB"/>
<path d="M51.9622 60.6465H12.6309V63.3664H51.9622V60.6465Z" fill="#22458C"/>
</g>
</svg>
