<svg width="24" height="24" viewBox="0 0 24 24" fill="none" xmlns="http://www.w3.org/2000/svg">
<path d="M0 12C0 5.37258 5.37258 0 12 0C18.6274 0 24 5.37258 24 12C24 18.6274 18.6274 24 12 24C5.37258 24 0 18.6274 0 12Z" fill="#FED7CB"/>
<path d="M17.4638 11.9016C17.4599 11.8975 17.4559 11.8935 17.4518 11.8896L12.1046 6.5424C11.9149 6.35257 11.6072 6.35251 11.4174 6.54228C11.4173 6.54228 11.4173 6.54234 11.4173 6.5424L6.07005 11.8896C5.88355 12.0827 5.88889 12.3905 6.08198 12.577C6.27038 12.7589 6.56904 12.7589 6.75738 12.577L11.2749 8.05954V17.5805C11.2749 17.849 11.4925 18.0667 11.761 18.0667C12.0294 18.0667 12.2471 17.849 12.2471 17.5805V8.05954L16.7645 12.577C16.951 12.7701 17.2587 12.7755 17.4518 12.5889C17.645 12.4024 17.6503 12.0946 17.4638 11.9016Z" fill="#FF9777"/>
</svg>
