<svg width="24" height="24" viewBox="0 0 24 24" fill="none" xmlns="http://www.w3.org/2000/svg">
<rect width="24" height="24" rx="4" fill="#0044FF"/>
<path d="M9.66602 13.5C9.66602 14.78 10.7193 15.8333 11.9993 15.8333C13.2793 15.8333 14.3327 14.78 14.3327 13.5" stroke="white" stroke-width="1.5" stroke-miterlimit="10" stroke-linecap="round" stroke-linejoin="round"/>
<path d="M9.87427 5.33333L7.46094 7.75333" stroke="white" stroke-width="1.5" stroke-miterlimit="10" stroke-linecap="round" stroke-linejoin="round"/>
<path d="M14.127 5.33333L16.5403 7.75333" stroke="white" stroke-width="1.5" stroke-miterlimit="10" stroke-linecap="round" stroke-linejoin="round"/>
<path d="M5.33398 9.23333C5.33398 7.99999 5.99398 7.89999 6.81398 7.89999H17.1873C18.0073 7.89999 18.6673 7.99999 18.6673 9.23333C18.6673 10.6667 18.0073 10.5667 17.1873 10.5667H6.81398C5.99398 10.5667 5.33398 10.6667 5.33398 9.23333Z" stroke="white" stroke-width="1.5"/>
<path d="M6.33398 10.6667L7.27398 16.4267C7.48732 17.72 8.00065 18.6667 9.90732 18.6667H13.9273C16.0007 18.6667 16.3073 17.76 16.5473 16.5067L17.6673 10.6667" stroke="white" stroke-width="1.5" stroke-linecap="round"/>
</svg>
