<svg width="24" height="24" viewBox="0 0 24 24" fill="none" xmlns="http://www.w3.org/2000/svg">
<rect width="24" height="24" rx="4" fill="#FF6B93"/>
<path d="M5.33398 5.33333H6.49399C7.21399 5.33333 7.78065 5.95333 7.72065 6.66666L7.16732 13.3067C7.07398 14.3933 7.93398 15.3267 9.02731 15.3267H16.1273C17.0873 15.3267 17.9273 14.54 18.0007 13.5867L18.3606 8.58666C18.4406 7.48 17.6006 6.57999 16.4873 6.57999H7.88066" stroke="white" stroke-miterlimit="10" stroke-linecap="round" stroke-linejoin="round"/>
<path d="M14.8333 18.6667C15.2936 18.6667 15.6667 18.2936 15.6667 17.8333C15.6667 17.3731 15.2936 17 14.8333 17C14.3731 17 14 17.3731 14 17.8333C14 18.2936 14.3731 18.6667 14.8333 18.6667Z" stroke="white" stroke-miterlimit="10" stroke-linecap="round" stroke-linejoin="round"/>
<path d="M9.49935 18.6667C9.95959 18.6667 10.3327 18.2936 10.3327 17.8333C10.3327 17.3731 9.95959 17 9.49935 17C9.03911 17 8.66602 17.3731 8.66602 17.8333C8.66602 18.2936 9.03911 18.6667 9.49935 18.6667Z" stroke="white" stroke-miterlimit="10" stroke-linecap="round" stroke-linejoin="round"/>
<path d="M10 9.33333H18" stroke="white" stroke-miterlimit="10" stroke-linecap="round" stroke-linejoin="round"/>
</svg>
